<?xml version="1.0" standalone="no"?><!DOCTYPE svg PUBLIC "-//W3C//DTD SVG 1.1//EN" "http://www.w3.org/Graphics/SVG/1.1/DTD/svg11.dtd"><svg t="1783758090181" class="icon" viewBox="0 0 1024 1024" version="1.1" xmlns="http://www.w3.org/2000/svg" p-id="5673" xmlns:xlink="http://www.w3.org/1999/xlink" width="48" height="48"><path d="M896 1024H128a128 128 0 0 1-128-128V256a128 128 0 0 1 128-128 42.666667 42.666667 0 0 0 42.666667-42.666667V42.666667a42.666667 42.666667 0 0 1 85.333333 0v42.666666a128 128 0 0 1-128 128 42.666667 42.666667 0 0 0-42.666667 42.666667v640a42.666667 42.666667 0 0 0 42.666667 42.666667h768a42.666667 42.666667 0 0 0 42.666667-42.666667V170.666667a42.666667 42.666667 0 0 1 85.333333 0v725.333333a128 128 0 0 1-128 128zM853.333333 85.333333V42.666667a42.666667 42.666667 0 0 0-85.333333 0v42.666666a42.666667 42.666667 0 0 1-42.666667 42.666667H384a42.666667 42.666667 0 0 0 0 85.333333h341.333333a128 128 0 0 0 128-128zM256 384a42.666667 42.666667 0 1 0 42.666667 42.666667 42.666667 42.666667 0 0 0-42.666667-42.666667z m170.666667 0a42.666667 42.666667 0 1 0 42.666666 42.666667 42.666667 42.666667 0 0 0-42.666666-42.666667z m170.666666 0a42.666667 42.666667 0 1 0 42.666667 42.666667 42.666667 42.666667 0 0 0-42.666667-42.666667z m170.666667 0a42.666667 42.666667 0 1 0 42.666667 42.666667 42.666667 42.666667 0 0 0-42.666667-42.666667zM256 554.666667a42.666667 42.666667 0 1 0 42.666667 42.666666 42.666667 42.666667 0 0 0-42.666667-42.666666z m341.333333 0a42.666667 42.666667 0 1 0 42.666667 42.666666 42.666667 42.666667 0 0 0-42.666667-42.666666z m-170.666666 0a42.666667 42.666667 0 1 0 42.666666 42.666666 42.666667 42.666667 0 0 0-42.666666-42.666666z m341.333333 0a42.666667 42.666667 0 1 0 42.666667 42.666666 42.666667 42.666667 0 0 0-42.666667-42.666666zM256 725.333333a42.666667 42.666667 0 1 0 42.666667 42.666667 42.666667 42.666667 0 0 0-42.666667-42.666667z m170.666667 0a42.666667 42.666667 0 1 0 42.666666 42.666667 42.666667 42.666667 0 0 0-42.666666-42.666667z m170.666666 0a42.666667 42.666667 0 1 0 42.666667 42.666667 42.666667 42.666667 0 0 0-42.666667-42.666667z" fill="#6C5CE7" p-id="5674"></path></svg>