<?xml version="1.0" standalone="no"?><!DOCTYPE svg PUBLIC "-//W3C//DTD SVG 1.1//EN" "http://www.w3.org/Graphics/SVG/1.1/DTD/svg11.dtd"><svg t="1783757833017" class="icon" viewBox="0 0 1365 1024" version="1.1" xmlns="http://www.w3.org/2000/svg" p-id="4735" width="170.625" height="128" xmlns:xlink="http://www.w3.org/1999/xlink"><path d="M1194.666667 1024H284.444444a56.888889 56.888889 0 0 1 0-113.777778h910.222223a56.888889 56.888889 0 0 0 56.888889-56.888889V341.333333a56.888889 56.888889 0 0 0-56.888889-56.888889h-243.484445a56.888889 56.888889 0 0 1-54.044444-38.684444L853.333333 113.777778H512l-43.804444 131.982222a56.888889 56.888889 0 0 1-54.044445 38.684444H170.666667a56.888889 56.888889 0 0 0-56.888889 56.888889v625.777778a56.888889 56.888889 0 0 1-113.777778 0V341.333333a170.666667 170.666667 0 0 1 170.666667-170.666666h202.524444l30.72-92.728889A113.777778 113.777778 0 0 1 512 0h341.333333a113.777778 113.777778 0 0 1 108.088889 77.937778L992.142222 170.666667H1194.666667a170.666667 170.666667 0 0 1 170.666666 170.666666v512a170.666667 170.666667 0 0 1-170.666666 170.666667z m-284.444445-455.111111a227.555556 227.555556 0 0 0-227.555555-227.555556 56.888889 56.888889 0 0 0 0 113.777778 113.777778 113.777778 0 1 1-107.52 75.662222 56.888889 56.888889 0 1 0-106.951111-38.115555A227.555556 227.555556 0 1 0 910.222222 568.888889z" fill="white" p-id="4736"></path></svg>