<?xml version="1.0" standalone="no"?><!DOCTYPE svg PUBLIC "-//W3C//DTD SVG 1.1//EN" "http://www.w3.org/Graphics/SVG/1.1/DTD/svg11.dtd"><svg t="1783768514341" class="icon" viewBox="0 0 1024 1024" version="1.1" xmlns="http://www.w3.org/2000/svg" p-id="2764" xmlns:xlink="http://www.w3.org/1999/xlink" width="48" height="48"><path d="M530.688 423.239111a156.046222 156.046222 0 0 0-133.546667 76.046222 14.222222 14.222222 0 0 0 24.462223 14.520889 127.445333 127.445333 0 0 1 109.070222-62.122666 14.222222 14.222222 0 0 0 0.014222-28.444445zM396.643556 532.423111a14.179556 14.179556 0 0 0-17.080889 10.609778c-2.588444 11.093333-4.067556 18.005333-4.067556 30.520889a14.222222 14.222222 0 1 0 28.444445 0c0-9.443556 1.009778-14.193778 3.313777-24.035556a14.222222 14.222222 0 0 0-10.609777-17.095111z" fill="" p-id="2765"></path><path d="M877.340444 270.222222h-69.774222l-57.088-100.039111c-0.583111-1.009778-1.223111-1.763556-1.92-2.688C721.834667 131.669333 682.752 113.777778 629.077333 113.777778H390.030222l-19.086222 0.199111c-32.696889 0-67.441778 4.565333-101.219556 54.912-0.682667 1.009778-1.308444 1.848889-1.848888 2.944L218.737778 270.222222h-68.679111C92.757333 270.222222 49.777778 315.719111 49.777778 368.469333v442.837334C49.777778 864.512 93.752889 910.222222 150.058667 910.222222h727.281777c52.138667 0 96.896-41.998222 96.896-98.915555V368.469333C974.222222 312.078222 930.332444 270.222222 877.340444 270.222222z m-727.281777 56.888889h86.300444c10.794667 0 20.664889-5.646222 25.500445-15.331555l56.120888-112.469334c18.289778-26.624 30.862222-27.918222 52.992-27.918222l258.104889 0.099556c35.2 0 57.116444 8.576 72.888889 28.942222l64.341334 112.768c5.048889 8.888889 14.492444 13.909333 24.732444 13.909333h86.286222c25.500444 0 40.007111 21.816889 40.007111 41.358222V455.111111H685.895111c-35.768889-57.699556-99.470222-96.327111-172.188444-96.327111S377.258667 397.411556 341.489778 455.111111H106.666667v-86.641778c0-22.755556 20.821333-41.358222 43.392-41.358222z m363.633777 408.561778c-96.071111 0-174.222222-78.165333-174.222222-174.222222s78.151111-174.222222 174.222222-174.222223 174.222222 78.151111 174.222223 174.222223c0 96.042667-78.151111 174.222222-174.222223 174.222222zM106.666667 483.555556h219.975111a201.315556 201.315556 0 0 0 7.082666 170.666666H106.666667V483.555556z m770.673777 369.777777H150.058667C125.411556 853.333333 106.666667 832.967111 106.666667 811.306667V682.666667h236.359111a13.795556 13.795556 0 0 0 7.04-2.133334c36.892444 50.56 96.398222 83.584 163.626666 83.584 66.261333 0 125.027556-32.113778 162.033778-81.450666h65.521778a14.222222 14.222222 0 1 0 0-28.444445h-47.587556a201.045333 201.045333 0 0 0 22.698667-92.771555A201.671111 201.671111 0 0 0 700.743111 483.555556H917.333333v170.666666h-76.544a14.222222 14.222222 0 1 0 0 28.444445H917.333333v128.64C917.347556 832 901.105778 853.333333 877.340444 853.333333z" fill="" p-id="2766"></path><path d="M798.136889 654.222222h-14.222222a14.222222 14.222222 0 1 0 0 28.444445h14.222222a14.222222 14.222222 0 1 0 0-28.444445z" fill="" p-id="2767"></path></svg>