<?xml version="1.0" standalone="no"?><!DOCTYPE svg PUBLIC "-//W3C//DTD SVG 1.1//EN" "http://www.w3.org/Graphics/SVG/1.1/DTD/svg11.dtd"><svg t="1783758154770" class="icon" viewBox="0 0 1365 1024" version="1.1" xmlns="http://www.w3.org/2000/svg" p-id="5886" width="170.625" height="128" xmlns:xlink="http://www.w3.org/1999/xlink"><path d="M1194.666667 1024H170.666667a170.666667 170.666667 0 0 1-170.666667-170.666667v-227.555555a113.777778 113.777778 0 0 1 113.777778-113.777778h113.777778a113.777778 113.777778 0 0 1 113.777777 113.777778v113.777778a56.888889 56.888889 0 0 1-113.777777 0v-113.777778H113.777778v227.555555a56.888889 56.888889 0 0 0 56.888889 56.888889h1024a56.888889 56.888889 0 0 0 56.888889-56.888889V113.777778h-113.777778v625.777778a56.888889 56.888889 0 0 1-113.777778 0V113.777778a113.777778 113.777778 0 0 1 113.777778-113.777778h113.777778a113.777778 113.777778 0 0 1 113.777777 113.777778v739.555555a170.666667 170.666667 0 0 1-170.666666 170.666667z m-341.333334-284.444444V455.111111a113.777778 113.777778 0 0 0-113.777777-113.777778h-113.777778a113.777778 113.777778 0 0 0-113.777778 113.777778v284.444445a56.888889 56.888889 0 0 0 113.777778 0V455.111111h113.777778v284.444445a56.888889 56.888889 0 0 0 113.777777 0z" fill="white" p-id="5887"></path></svg>