<?xml version="1.0" standalone="no"?><!DOCTYPE svg PUBLIC "-//W3C//DTD SVG 1.1//EN" "http://www.w3.org/Graphics/SVG/1.1/DTD/svg11.dtd"><svg t="1783768597530" class="icon" viewBox="0 0 1024 1024" version="1.1" xmlns="http://www.w3.org/2000/svg" p-id="3097" xmlns:xlink="http://www.w3.org/1999/xlink" width="48" height="48"><path d="M935.964444 967.111111h-853.333333a28.444444 28.444444 0 0 1 0-56.888889h853.333333a28.444444 28.444444 0 0 1 0 56.888889zM329.813333 754.744889A98.602667 98.602667 0 0 1 231.224889 853.333333h-73.059556a98.602667 98.602667 0 0 1-98.588444-98.588444V468.366222A98.616889 98.616889 0 0 1 158.179556 369.777778h73.059555a98.602667 98.602667 0 0 1 98.588445 98.588444v286.378667z m-56.888889-286.378667A41.699556 41.699556 0 0 0 231.224889 426.666667h-73.059556a41.699556 41.699556 0 0 0-41.699555 41.699555v286.392889A41.713778 41.713778 0 0 0 158.179556 796.444444h73.059555a41.699556 41.699556 0 0 0 41.699556-41.699555V468.366222zM656.924444 754.744889A98.602667 98.602667 0 0 1 558.336 853.333333h-73.059556a98.602667 98.602667 0 0 1-98.588444-98.588444V311.921778A98.602667 98.602667 0 0 1 485.276444 213.333333h73.059556a98.602667 98.602667 0 0 1 98.588444 98.588445v442.823111z m-56.888888-442.823111A41.699556 41.699556 0 0 0 558.336 270.222222h-73.059556a41.699556 41.699556 0 0 0-41.699555 41.699556v442.837333a41.699556 41.699556 0 0 0 41.699555 41.699556h73.059556a41.699556 41.699556 0 0 0 41.699556-41.699556V311.921778zM796.444444 270.222222c-7.864889 0-11.52-6.357333-11.52-14.222222v-85.873778C784.924444 142.222222 807.836444 142.222222 817.152 142.222222h33.479111a14.222222 14.222222 0 1 1 0 28.444445h-33.479111c-4.778667 0-7.552 0.227556-9.159111 0.497777L809.315556 256c0 7.864889-5.020444 14.222222-12.871112 14.222222zM793.742222 301.226667c-3.712 0-7.409778-1.564444-10.097778-4.124445-2.574222-2.688-4.124444-6.4-4.124444-10.097778s1.550222-7.395556 4.124444-10.097777c5.404444-5.404444 14.933333-5.262222 20.195556 0 2.56 2.702222 4.124444 6.257778 4.124444 10.097777 0 3.697778-1.564444 7.409778-4.124444 10.097778a15.075556 15.075556 0 0 1-10.097778 4.124445z" fill="" p-id="3098"></path><path d="M969.813333 754.744889A98.602667 98.602667 0 0 1 871.224889 853.333333h-73.059556a98.602667 98.602667 0 0 1-98.588444-98.588444V155.477333A98.616889 98.616889 0 0 1 798.179556 56.888889h73.059555a98.602667 98.602667 0 0 1 98.588445 98.588444v599.267556z m-56.888889-599.267556A41.699556 41.699556 0 0 0 871.239111 113.777778h-73.059555a41.699556 41.699556 0 0 0-41.699556 41.699555v599.281778a41.699556 41.699556 0 0 0 41.699556 41.699556h73.059555a41.699556 41.699556 0 0 0 41.699556-41.699556V155.477333z" fill="" p-id="3099"></path></svg>