<?xml version="1.0" standalone="no"?><!DOCTYPE svg PUBLIC "-//W3C//DTD SVG 1.1//EN" "http://www.w3.org/Graphics/SVG/1.1/DTD/svg11.dtd"><svg t="1783768542037" class="icon" viewBox="0 0 1024 1024" version="1.1" xmlns="http://www.w3.org/2000/svg" p-id="2931" xmlns:xlink="http://www.w3.org/1999/xlink" width="48" height="48"><path d="M868.522667 156.444444H782.222222V71.111111a28.444444 28.444444 0 0 0-56.888889 0v85.333333H284.444444V71.111111a28.444444 28.444444 0 0 0-56.888888 0v85.333333h-72.078223A98.602667 98.602667 0 0 0 56.888889 255.032889v627.712A98.602667 98.602667 0 0 0 155.477333 981.333333h713.045334A98.602667 98.602667 0 0 0 967.111111 882.744889V255.032889A98.602667 98.602667 0 0 0 868.522667 156.444444z m-713.045334 56.888889H227.555556v71.111111a28.444444 28.444444 0 0 0 56.888888 0v-71.111111h440.888889v71.111111a28.444444 28.444444 0 0 0 56.888889 0v-71.111111h86.300445A41.699556 41.699556 0 0 1 910.222222 255.032889V398.222222H113.777778V255.032889A41.699556 41.699556 0 0 1 155.477333 213.333333z m713.045334 711.111111H155.477333A41.699556 41.699556 0 0 1 113.777778 882.744889V426.666667h796.444444v456.078222A41.685333 41.685333 0 0 1 868.522667 924.444444z" fill="" p-id="2932"></path><path d="M851.854222 805.560889c-7.864889 0-15.687111 6.357333-15.687111 14.222222 0 31.132444-9.955556 33.550222-24.035555 33.550222h-89.742223a14.222222 14.222222 0 1 0 0 28.444445h89.742223c32.64 0 51.640889-18.304 53.745777-54.442667 0.156444-0.810667 1.678222-1.607111 1.678223-2.446222v-5.105778c0-7.864889-7.822222-14.222222-15.701334-14.222222zM851.555556 773.845333c3.697778 0 7.395556-1.592889 10.097777-4.138666a14.791111 14.791111 0 0 0 4.124445-10.083556c0-3.740444-1.550222-7.424-4.124445-10.112-5.404444-5.248-14.933333-5.248-20.195555 0-2.574222 2.702222-4.124444 6.371556-4.124445 10.112 0 3.854222 1.550222 7.409778 4.124445 10.083556 2.688 2.56 6.243556 4.138667 10.097778 4.138666zM267.306667 526.222222h-14.222223a14.222222 14.222222 0 1 0 0 28.444445h14.222223a14.222222 14.222222 0 1 0 0-28.444445zM366.862222 526.222222h-14.222222a14.222222 14.222222 0 1 0 0 28.444445h14.222222a14.222222 14.222222 0 1 0 0-28.444445zM466.417778 526.222222h-14.222222a14.222222 14.222222 0 1 0 0 28.444445h14.222222a14.222222 14.222222 0 1 0 0-28.444445zM551.751111 526.222222h-14.222222a14.222222 14.222222 0 1 0 0 28.444445h14.222222a14.222222 14.222222 0 1 0 0-28.444445zM651.306667 526.222222h-14.222223a14.222222 14.222222 0 1 0 0 28.444445h14.222223a14.222222 14.222222 0 1 0 0-28.444445zM736.64 554.666667h14.222222a14.222222 14.222222 0 1 0 0-28.444445h-14.222222a14.222222 14.222222 0 1 0 0 28.444445zM267.306667 611.555556h-14.222223a14.222222 14.222222 0 1 0 0 28.444444h14.222223a14.222222 14.222222 0 1 0 0-28.444444zM366.862222 611.555556h-14.222222a14.222222 14.222222 0 1 0 0 28.444444h14.222222a14.222222 14.222222 0 1 0 0-28.444444zM466.417778 611.555556h-14.222222a14.222222 14.222222 0 1 0 0 28.444444h14.222222a14.222222 14.222222 0 1 0 0-28.444444zM551.751111 611.555556h-14.222222a14.222222 14.222222 0 1 0 0 28.444444h14.222222a14.222222 14.222222 0 1 0 0-28.444444zM651.306667 611.555556h-14.222223a14.222222 14.222222 0 1 0 0 28.444444h14.222223a14.222222 14.222222 0 1 0 0-28.444444zM736.64 640h14.222222a14.222222 14.222222 0 1 0 0-28.444444h-14.222222a14.222222 14.222222 0 1 0 0 28.444444zM267.306667 782.222222h-14.222223a14.222222 14.222222 0 1 0 0 28.444445h14.222223a14.222222 14.222222 0 1 0 0-28.444445zM366.862222 782.222222h-14.222222a14.222222 14.222222 0 1 0 0 28.444445h14.222222a14.222222 14.222222 0 1 0 0-28.444445zM466.417778 782.222222h-14.222222a14.222222 14.222222 0 1 0 0 28.444445h14.222222a14.222222 14.222222 0 1 0 0-28.444445zM551.751111 782.222222h-14.222222a14.222222 14.222222 0 1 0 0 28.444445h14.222222a14.222222 14.222222 0 1 0 0-28.444445zM267.306667 696.888889h-14.222223a14.222222 14.222222 0 1 0 0 28.444444h14.222223a14.222222 14.222222 0 1 0 0-28.444444zM366.862222 696.888889h-14.222222a14.222222 14.222222 0 1 0 0 28.444444h14.222222a14.222222 14.222222 0 1 0 0-28.444444zM466.417778 696.888889h-14.222222a14.222222 14.222222 0 1 0 0 28.444444h14.222222a14.222222 14.222222 0 1 0 0-28.444444zM551.751111 696.888889h-14.222222a14.222222 14.222222 0 1 0 0 28.444444h14.222222a14.222222 14.222222 0 1 0 0-28.444444zM651.306667 696.888889h-14.222223a14.222222 14.222222 0 1 0 0 28.444444h14.222223a14.222222 14.222222 0 1 0 0-28.444444zM736.64 725.333333h14.222222a14.222222 14.222222 0 1 0 0-28.444444h-14.222222a14.222222 14.222222 0 1 0 0 28.444444z" fill="" p-id="2933"></path></svg>